<?xml version="1.0" encoding="UTF-8"?>
<svg id="Layer_2" data-name="Layer 2" xmlns="http://www.w3.org/2000/svg" xmlns:xlink="http://www.w3.org/1999/xlink" viewBox="0 0 143.59 121.43">
  <defs>
    <style>
      .cls-1 {
        fill: url(#linear-gradient);
      }

      .cls-1, .cls-2, .cls-3, .cls-4 {
        stroke-width: 0px;
      }

      .cls-5 {
        letter-spacing: -.02em;
      }

      .cls-2, .cls-6 {
        fill: #fff;
      }

      .cls-3 {
        fill: url(#linear-gradient-2);
      }

      .cls-4 {
        fill: url(#linear-gradient-3);
      }

      .cls-6 {
        font-family: Rikafu-Regular, Rikafu;
        font-size: 23.97px;
      }
    </style>
    <linearGradient id="linear-gradient" x1="14.58" y1="47.35" x2="129.01" y2="47.35" gradientUnits="userSpaceOnUse">
      <stop offset=".01" stop-color="#37b34a"/>
      <stop offset="1" stop-color="#009345"/>
    </linearGradient>
    <linearGradient id="linear-gradient-2" x1="87.9" y1="82.57" x2="93.22" y2="82.57" xlink:href="#linear-gradient"/>
    <linearGradient id="linear-gradient-3" x1="50.66" y1="82.46" x2="56.55" y2="82.46" xlink:href="#linear-gradient"/>
  </defs>
  <g id="Layer_1-2" data-name="Layer 1">
    <g>
      <g>
        <path class="cls-1" d="M44.53,59.87v-24.75c1.98,0,3.82-.03,5.67.03.29,0,.69.33.84.61.9,1.67,1.81,3.35,2.56,5.09.33.77.64,1.14,1.52,1.12.81-.02,1.16-.2,1.53-1.04.79-1.76,1.83-3.42,2.87-5.06.7-1.1,1.67-.97,2.31.02,1.03,1.59,2,3.23,2.78,4.95.39.87.81,1.11,1.68,1.13.9.02,1.12-.39,1.47-1.14.78-1.67,1.69-3.31,2.77-4.8.95-1.31,1.61-1.29,2.57.06,1.01,1.42,1.82,3,2.58,4.58.35.71.45,1.35,1.51,1.32.96-.03,1.33-.34,1.73-1.23.79-1.71,1.81-3.32,2.84-4.91.73-1.13,1.7-.86,2.31.09,1.02,1.59,1.98,3.24,2.74,4.97.36.84.74,1.06,1.56,1.04.8-.02,1.16-.22,1.53-1.07.85-1.95,2-3.77,3.02-5.64h6.03v24.5h9.42c0-.86,0-1.66,0-2.46,0-4.78-.02-9.57.05-14.35.02-1.31-.19-2.45-1.03-3.47-.24-.29-.39-.67-.64-.95-2.65-3-1.88-6.59-1.91-10.2h4.15c.04-.81.09-1.5.09-2.2.01-2.68.02-5.36,0-8.04,0-.43,0-.88-.15-1.27-1.29-3.41-.28-6.33,2.54-8.2,2.74-1.83,4.5-3.89,4.43-7.26,0-.27.15-.55.27-.8.05-.11.21-.18.68-.56.27,1.26.74,2.32.67,3.35-.13,2,.97,2.92,2.43,3.94,1.45,1.02,2.76,2.34,3.87,3.74,1.01,1.27,1.1,2.88.78,4.52-.3,1.53-.49,3.09-.54,4.65-.09,2.62-.02,5.24-.02,8.06h4.15c.3,4.01.64,7.82-2.2,11-.98,1.09-1.24,2.35-1.21,3.82.08,5.02.03,10.04.04,15.07,0,.51,0,1.03,0,1.66h4.2v34.89h-47.2c-.03-.49-.07-.99-.07-1.49,0-7.03-.22-14.07.06-21.09.19-4.78-2.09-7.62-5.8-10.04-2.78-1.82-5.25-2.6-8.01-.14-1.13,1.01-2.54,1.71-3.67,2.71-1.64,1.47-2.4,3.37-2.39,5.62.03,7.61.01,15.21.01,22.82,0,.52,0,1.03,0,1.63H14.58v-34.84h29.95ZM47.66,45.1c0,1.42,0,2.7,0,3.99,0,13.72.01,27.45-.03,41.17,0,1.24.42,1.54,1.57,1.51,2.72-.07,5.45-.08,8.18,0,1.15.03,1.44-.35,1.44-1.47-.05-6.36-.08-12.72-.01-19.08.04-3.8,1.18-7.24,4.4-9.52,2.41-1.7,5.02-3.14,7.6-4.58.52-.29,1.45-.31,1.98-.03,2.16,1.12,4.26,2.36,6.34,3.62,4.09,2.48,5.63,6.29,5.61,10.91-.02,6.22.03,12.43-.03,18.65-.01,1.23.38,1.54,1.55,1.51,2.72-.07,5.45-.07,8.18,0,1.15.03,1.62-.27,1.58-1.51-.08-2.43,0-4.87,0-7.31,0-12.24-.01-24.48.01-36.72,0-1.04-.37-1.28-1.35-1.27-6.03.04-12.05.01-18.08.03-.47,0-.94.14-1.48.23,1.32,2.36,1.48,2.46,3.76,2.44,3.44-.03,6.89-.06,10.33-.08,1.32,0,2.63,0,3.9,0v24.46c-.24.08-.33.13-.42.13-1.1.01-2.2.02-3.3.03-1.88,0-1.91,0-1.96-1.85-.1-3.76-1.48-6.94-4.12-9.64-3.13-3.2-7.17-4.85-11.07-6.75-.31-.15-.87-.05-1.2.13-3.01,1.65-6.09,3.21-8.97,5.08-2.72,1.76-4.59,4.34-5.37,7.54-.33,1.33-.44,2.74-.48,4.11-.03,1.13-.44,1.52-1.54,1.42-1-.09-2.01-.07-3.01-.03-.89.04-1.28-.24-1.28-1.21.02-7.32.02-14.63-.02-21.95,0-1.06.34-1.4,1.41-1.39,4.59.04,9.18,0,13.77,0,1.49,0,2.44-.86,2.73-2.55h-20.61ZM27.03,73.85c1.53-1.4,2.93-2.69,4.41-4.05,1.54,1.43,3.02,2.81,4.33,4.04.78-.64,1.39-1.14,2.01-1.64-.15.08-.31.16-.46.24-1.92-2.18-3.84-4.36-5.82-6.61-1.63,1.49-3.06,2.79-4.58,4.18-2.23-2.15-4.3-4.21-6.45-6.17-.59-.54-1.44-.78-2.17-1.17-.18.16-.37.31-.55.47.26.9.26,2.07.84,2.66,2.67,2.72,5.51,5.29,8.44,8.05ZM108.11,69.95c-.31-.26-.54-.42-.75-.61-2.1-1.95-4.19-3.9-6.28-5.85-.57-.53-1.38-.97-1.73-.14-.28.66-.19,1.92.27,2.39,2.7,2.74,5.55,5.32,8.4,8,1.58-1.38,3.03-2.65,4.51-3.95,1.55,1.48,2.98,2.85,4.47,4.27.7-.73,1.24-1.3,1.89-1.97-2.19-2.07-4.28-4.05-6.46-6.1-1.51,1.38-2.9,2.66-4.32,3.97ZM106,80.32c.57.44.98.7,1.33,1.03,3.1,2.91,6.31,5.7,9.22,8.79,1.65,1.75,3.38,1.65,5.65,1.43-4.07-3.84-7.93-7.48-11.92-11.24,1.55-1.47,2.92-2.77,4.38-4.16-.74-.75-1.33-1.35-1.99-2.02-2.19,2.03-4.28,3.97-6.66,6.17ZM41,91.52c-4.02-3.84-7.81-7.46-11.93-11.39,1.59-1.39,3.05-2.66,4.43-3.87-.74-.8-1.31-1.42-1.95-2.12-2.16,2.04-4.26,4.02-6.41,6.05,3.5,3.33,6.98,6.4,10.16,9.76,1.62,1.71,3.32,1.89,5.7,1.57ZM114.75,28.41c0-1.84-.06-3.56.03-5.26.03-.55.31-1.25.72-1.57,1.31-1.05,2.87-.22,2.95,1.57.08,1.74.02,3.49.02,5.26h2.5v-9.83h-8.69v9.84h2.46ZM90.02,50.65c-2.16,0-4.15,0-6.15,0-1.43,0-2.87.01-4.3-.04-1.44-.05-1.17,1.13-1.33,1.91-.03.13.8.6,1.24.62,2.15.08,4.3.09,6.46.04.99-.02,1.42.3,1.32,1.31-.06.57-.04,1.15-.03,1.72.02,1.43-.26,2.97.16,4.27.62,1.89,1.75,3.62,2.64,5.35v-15.19ZM53.57,66.13c.48-1.33.61-2.46,1.22-3.21,1.8-2.19,1.44-4.73,1.51-7.22.01-.38.02-.77-.03-1.15-.14-1.06.26-1.42,1.36-1.39,2.52.08,5.04.03,7.54.03.29-2.35.1-2.58-1.91-2.58-2.63,0-5.26.06-7.89-.03-1.34-.05-1.88.3-1.83,1.73.1,3.01.04,6.02.04,9.03,0,1.46,0,2.91,0,4.78ZM125.86,69.95c-3.61,3.45-7.19,6.87-10.83,10.34.68.7,1.29,1.32,2.22,2.28,1.13-1.29,2.15-2.43,3.13-3.6.67-.8,1.2-.66,1.86.03,1.1,1.15,2.29,2.22,3.47,3.36,1.16-2.89-.56-4.47-2.47-6.06,2.1-1.68,3.71-3.44,2.61-6.35ZM116.52,15.53h0c.95-.01,1.91-.02,2.86-.01,2.35.02,2.93-1,1.73-3.11-.28-.49-.69-.92-1.1-1.3-3.02-2.74-3.4-2.74-6.56-.2-1.14.91-1.82,2.04-1.85,3.54-.02.78.25,1.13,1.07,1.1,1.29-.04,2.57-.01,3.86-.01ZM125.29,31.31h-17.37v2.54h17.37v-2.54ZM36.31,82.54c1.25-1.54,2.45-3.01,3.69-4.53,1.63,1.49,2.94,2.69,4.27,3.9.52-2.34.11-4.22-2.17-5.61,2.39-1.43,2.58-3.43,2.2-5.91-3.53,3.39-6.89,6.62-10.25,9.84.68.7,1.27,1.3,2.26,2.31ZM121.76,43.09c-.27.19-.43.28-.55.39-2.66,2.54-5.18,5.25-8.02,7.57-1.98,1.62-1.94,3.43-1.68,5.7,2.91-2.75,5.54-5.54,8.5-7.94,1.99-1.62,1.92-3.47,1.76-5.72ZM18.1,82.64c2.16-2.27,4.25-4.47,6.44-6.77-2.05-1.9-4.25-3.93-6.45-5.96-.22,1.35-.47,2.71.04,3.65.54,1,1.8,1.6,2.91,2.5-2.43,1.88-3.98,3.63-2.94,6.58ZM121.8,51.52c-2.95,2.83-5.67,5.44-8.55,8.19h8.55v-8.19ZM123.53,37.02h-13.81c.76,2.5.94,2.61,3.24,2.59,2.43-.03,4.86-.01,7.29,0,2.39.02,2.39.03,3.28-2.59ZM105.51,75.8c-1.96-1.85-4.05-3.83-6.17-5.84-.62,2.66.06,4.72,2.5,6.21-2.33,1.56-3.22,3.38-2.36,6.04,2.05-2.18,3.98-4.23,6.03-6.41ZM68.27,51.3c.07.16.18.96.58,1.15.37.17,1.2-.17,1.56-.54,1.08-1.09,1.94-.71,2.97.08,1.2.92,1.76.64,1.96-.84.23-1.68-1.63-4.53-3.24-4.94-.17-.04-.37-.03-.54.02-1.63.47-3.31,2.85-3.29,5.08ZM18.27,90.82c1.98-2.32,3.96-4.64,5.94-6.96l.47.28c-.6-.56-1.21-1.11-2.14-1.98-1.11,1.28-1.95,2.64-3.15,3.52-1.86,1.38-1.63,3.08-1.12,5.13ZM104.07,82.57c-.23.04-.29.03-.32.05-1.09,1-2.18,2.01-3.27,3.01-1.38,1.26-1.7,2.82-.81,5.01,2-2.25,3.89-4.39,5.84-6.58-.35-.36-.93-.96-1.44-1.49ZM125.71,90.52c.15-.07.31-.14.46-.22-.14-1.2.11-2.69-.51-3.53-1.2-1.61-2.89-2.85-4.4-4.27-.69.63-1.31,1.2-2.02,1.85,2.24,2.13,4.36,4.14,6.48,6.16ZM121.59,70.35c1.52-1.72,2.99-3.22,4.23-4.9.39-.53.14-1.53.18-2.31-.54-.02-1.28-.27-1.58,0-1.75,1.51-3.39,3.14-5.13,4.78.72.76,1.3,1.37,2.3,2.44ZM40.24,82.56c-.71.63-1.34,1.17-2.06,1.81,2.11,2.01,4.03,3.85,6.04,5.77.56-2.48.18-4.34-1.9-5.66-.75-.47-1.32-1.21-2.08-1.92ZM40.44,69.77c1.73-1.98,4.96-3.11,3.66-7.15-2.17,1.59-3.91,3.39-5.73,5.24.69.64,1.31,1.21,2.07,1.91ZM111.45,48.35c2.08-1.96,3.92-3.69,5.96-5.61h-5.96v5.61ZM27.24,86.62c-1.76,1.66-3.41,3.22-5.11,4.83,3.3,1.02,5.26-.53,6.87-2.85-.57-.64-1.12-1.26-1.76-1.98ZM110.09,88.54c-.56-.59-1.12-1.19-1.77-1.87-1.74,1.64-3.35,3.15-5.05,4.75,3.25.96,5.24-.42,6.82-2.88ZM116.93,65.66c.96-.89,1.8-1.67,2.72-2.53h-5.31c.99.96,1.72,1.68,2.59,2.53ZM35.82,65.71c1.01-.9,1.87-1.67,2.87-2.57h-5.32c.95,1,1.63,1.71,2.45,2.57ZM110.35,63.39c-.07-.1-.15-.2-.22-.3h-4.94c1.13.94,1.99,1.65,2.96,2.46.77-.75,1.48-1.45,2.2-2.16ZM29.26,63.47c-.09-.14-.17-.27-.26-.41h-4.9c1.09.96,1.96,1.73,2.7,2.4.92-.74,1.68-1.37,2.45-1.99Z"/>
        <g>
          <path class="cls-2" d="M47.66,45.1h20.61c-.29,1.7-1.24,2.55-2.73,2.55-4.59,0-9.18.04-13.77,0-1.06,0-1.41.33-1.41,1.39.04,7.32.05,14.63.02,21.95,0,.97.38,1.25,1.28,1.21,1-.04,2.01-.06,3.01.03,1.11.1,1.51-.28,1.54-1.42.04-1.38.15-2.78.48-4.11.79-3.2,2.66-5.78,5.37-7.54,2.88-1.87,5.96-3.42,8.97-5.08.33-.18.89-.28,1.2-.13,3.9,1.89,7.95,3.55,11.07,6.75,2.64,2.7,4.02,5.87,4.12,9.64.05,1.86.08,1.86,1.96,1.85,1.1,0,2.2-.01,3.3-.03.09,0,.18-.06.42-.13v-24.46c-1.27,0-2.59,0-3.9,0-3.44.02-6.89.06-10.33.08-2.29.02-2.45-.08-3.76-2.44.54-.09,1.01-.23,1.48-.23,6.03-.01,12.05.01,18.08-.03.97,0,1.35.24,1.35,1.27-.03,12.24-.01,24.48-.01,36.72,0,2.44-.08,4.88,0,7.31.04,1.24-.44,1.54-1.58,1.51-2.72-.07-5.45-.07-8.18,0-1.16.03-1.56-.28-1.55-1.51.06-6.22.01-12.43.03-18.65.02-4.62-1.52-8.43-5.61-10.91-2.08-1.26-4.18-2.5-6.34-3.62-.53-.27-1.46-.26-1.98.03-2.58,1.44-5.19,2.87-7.6,4.58-3.23,2.28-4.37,5.72-4.4,9.52-.07,6.36-.04,12.72.01,19.08,0,1.13-.29,1.5-1.44,1.47-2.72-.07-5.45-.06-8.18,0-1.15.03-1.58-.27-1.57-1.51.04-13.72.03-27.45.03-41.17,0-1.29,0-2.57,0-3.99ZM56.55,89.24h-5.89v-10.79l2.9-2.75,2.99,2.75v10.79Z"/>
          <path class="cls-2" d="M27.03,73.85c-2.93-2.76-5.77-5.32-8.44-8.05-.58-.59-.57-1.76-.84-2.66.18-.16.37-.31.55-.47.73.38,1.58.63,2.17,1.17,2.15,1.96,4.21,4.01,6.45,6.17,1.52-1.39,2.95-2.7,4.58-4.18,1.97,2.24,3.89,4.42,5.82,6.61.15-.08.31-.16.46-.24-.61.5-1.23,1-2.01,1.64-1.32-1.23-2.8-2.61-4.33-4.04-1.48,1.36-2.88,2.65-4.41,4.05Z"/>
          <path class="cls-2" d="M108.11,69.95c1.42-1.3,2.81-2.58,4.32-3.97,2.17,2.06,4.27,4.04,6.46,6.1-.64.67-1.19,1.24-1.89,1.97-1.49-1.42-2.92-2.79-4.47-4.27-1.48,1.29-2.93,2.57-4.51,3.95-2.85-2.68-5.71-5.26-8.4-8-.46-.47-.55-1.73-.27-2.39.35-.82,1.17-.39,1.73.14,2.09,1.96,4.19,3.91,6.28,5.85.2.19.43.36.75.61Z"/>
          <path class="cls-2" d="M106,80.32c2.38-2.2,4.47-4.14,6.66-6.17.66.67,1.25,1.27,1.99,2.02-1.46,1.39-2.83,2.69-4.38,4.16,3.99,3.77,7.85,7.41,11.92,11.24-2.27.22-4,.32-5.65-1.43-2.9-3.09-6.12-5.88-9.22-8.79-.35-.32-.75-.58-1.33-1.03Z"/>
          <path class="cls-2" d="M41,91.52c-2.38.32-4.08.15-5.7-1.57-3.18-3.36-6.66-6.43-10.16-9.76,2.15-2.03,4.25-4.01,6.41-6.05.64.7,1.22,1.32,1.95,2.12-1.38,1.21-2.84,2.48-4.43,3.87,4.12,3.93,7.91,7.55,11.93,11.39Z"/>
          <path class="cls-2" d="M114.75,28.41h-2.46v-9.84h8.69v9.83h-2.5c0-1.77.06-3.52-.02-5.26-.08-1.79-1.64-2.62-2.95-1.57-.41.33-.69,1.03-.72,1.57-.09,1.7-.03,3.42-.03,5.26Z"/>
          <path class="cls-2" d="M90.02,50.65v15.19c-.88-1.74-2.02-3.46-2.64-5.35-.43-1.3-.14-2.84-.16-4.27,0-.57-.02-1.15.03-1.72.1-1.01-.33-1.33-1.32-1.31-2.15.05-4.31.03-6.46-.04-.44-.02-1.26-.49-1.24-.62.16-.79-.11-1.97,1.33-1.91,1.43.05,2.87.04,4.3.04,2,0,3.99,0,6.15,0Z"/>
          <path class="cls-2" d="M53.57,66.13c0-1.87,0-3.33,0-4.78,0-3.01.05-6.03-.04-9.03-.05-1.43.49-1.78,1.83-1.73,2.63.1,5.26.03,7.89.03,2.02,0,2.21.24,1.91,2.58-2.49,0-5.02.05-7.54-.03-1.1-.03-1.5.33-1.36,1.39.05.38.04.76.03,1.15-.07,2.49.29,5.03-1.51,7.22-.61.74-.74,1.88-1.22,3.21Z"/>
          <path class="cls-2" d="M125.86,69.95c1.11,2.91-.51,4.67-2.61,6.35,1.9,1.59,3.62,3.17,2.47,6.06-1.19-1.14-2.37-2.21-3.47-3.36-.67-.69-1.2-.83-1.86-.03-.98,1.17-2,2.31-3.13,3.6-.94-.96-1.54-1.58-2.22-2.28,3.64-3.48,7.21-6.89,10.83-10.34Z"/>
          <path class="cls-2" d="M116.52,15.53c-1.29,0-2.57-.03-3.86.01-.82.03-1.09-.32-1.07-1.1.03-1.5.71-2.62,1.85-3.54,3.17-2.53,3.54-2.53,6.56.2.42.38.83.81,1.1,1.3,1.2,2.12.62,3.13-1.73,3.11-.95,0-1.91,0-2.86,0h0Z"/>
          <path class="cls-2" d="M125.29,31.31v2.54h-17.37v-2.54h17.37Z"/>
          <path class="cls-2" d="M36.31,82.54c-.99-1.01-1.58-1.61-2.26-2.31,3.36-3.22,6.71-6.45,10.25-9.84.38,2.48.19,4.48-2.2,5.91,2.28,1.39,2.69,3.27,2.17,5.61-1.33-1.22-2.63-2.41-4.27-3.9-1.24,1.52-2.44,3-3.69,4.53Z"/>
          <path class="cls-2" d="M121.76,43.09c.16,2.25.23,4.1-1.76,5.72-2.95,2.4-5.59,5.19-8.5,7.94-.26-2.27-.29-4.08,1.68-5.7,2.84-2.32,5.36-5.03,8.02-7.57.12-.12.28-.2.55-.39Z"/>
          <path class="cls-2" d="M18.1,82.64c-1.04-2.96.51-4.7,2.94-6.58-1.11-.9-2.37-1.51-2.91-2.5-.51-.94-.26-2.29-.04-3.65,2.2,2.03,4.39,4.06,6.45,5.96-2.19,2.3-4.28,4.5-6.44,6.77Z"/>
          <path class="cls-2" d="M121.8,51.52v8.19h-8.55c2.88-2.76,5.59-5.36,8.55-8.19Z"/>
          <path class="cls-2" d="M123.53,37.02c-.89,2.62-.89,2.61-3.28,2.59-2.43-.02-4.86-.03-7.29,0-2.3.03-2.47-.09-3.24-2.59h13.81Z"/>
          <path class="cls-2" d="M105.51,75.8c-2.06,2.18-3.98,4.23-6.03,6.41-.86-2.65.03-4.48,2.36-6.04-2.44-1.49-3.12-3.55-2.5-6.21,2.13,2.01,4.22,3.99,6.17,5.84Z"/>
          <path class="cls-2" d="M68.27,51.3c-.02-2.23,1.67-4.61,3.29-5.08.17-.05.37-.06.54-.02,1.62.42,3.48,3.26,3.24,4.94-.21,1.48-.76,1.76-1.96.84-1.03-.79-1.89-1.17-2.97-.08-.37.37-1.2.71-1.56.54-.4-.19-.51-.99-.58-1.15Z"/>
          <path class="cls-2" d="M18.27,90.82c-.52-2.05-.74-3.75,1.12-5.13,1.19-.88,2.04-2.25,3.15-3.52.93.86,1.54,1.42,2.14,1.98l-.47-.28c-1.98,2.32-3.96,4.64-5.94,6.96Z"/>
          <path class="cls-2" d="M104.07,82.57c.51.52,1.09,1.13,1.44,1.49-1.95,2.2-3.85,4.34-5.84,6.58-.89-2.19-.56-3.75.81-5.01,1.09-1,2.18-2.01,3.27-3.01.03-.03.09-.02.32-.05Z"/>
          <path class="cls-2" d="M125.71,90.52c-2.12-2.02-4.24-4.03-6.48-6.16.71-.65,1.33-1.22,2.02-1.85,1.51,1.41,3.2,2.66,4.4,4.27.62.84.37,2.33.51,3.53-.15.07-.31.14-.46.22Z"/>
          <path class="cls-2" d="M121.59,70.35c-1-1.06-1.58-1.67-2.3-2.44,1.74-1.64,3.38-3.27,5.13-4.78.3-.26,1.04,0,1.58,0-.04.78.21,1.78-.18,2.31-1.24,1.67-2.71,3.17-4.23,4.9Z"/>
          <path class="cls-2" d="M40.24,82.56c.75.71,1.33,1.45,2.08,1.92,2.08,1.32,2.47,3.18,1.9,5.66-2.01-1.92-3.93-3.75-6.04-5.77.73-.64,1.35-1.19,2.06-1.81Z"/>
          <path class="cls-2" d="M40.44,69.77c-.76-.7-1.38-1.27-2.07-1.91,1.82-1.85,3.56-3.65,5.73-5.24,1.3,4.04-1.93,5.18-3.66,7.15Z"/>
          <path class="cls-2" d="M111.45,48.35v-5.61h5.96c-2.04,1.92-3.88,3.65-5.96,5.61Z"/>
          <path class="cls-2" d="M27.24,86.62c.64.72,1.19,1.34,1.76,1.98-1.6,2.32-3.56,3.87-6.87,2.85,1.7-1.61,3.35-3.17,5.11-4.83Z"/>
          <path class="cls-2" d="M110.09,88.54c-1.59,2.46-3.57,3.84-6.82,2.88,1.7-1.6,3.31-3.11,5.05-4.75.65.68,1.21,1.29,1.77,1.87Z"/>
          <path class="cls-2" d="M116.93,65.66c-.87-.85-1.6-1.57-2.59-2.53h5.31c-.92.86-1.77,1.64-2.72,2.53Z"/>
          <path class="cls-2" d="M35.82,65.71c-.82-.86-1.5-1.57-2.45-2.57h5.32c-1,.9-1.86,1.67-2.87,2.57Z"/>
          <path class="cls-2" d="M110.35,63.39c-.72.7-1.43,1.4-2.2,2.16-.97-.81-1.84-1.52-2.96-2.46h4.94c.07.1.15.2.22.3Z"/>
          <path class="cls-2" d="M29.26,63.47c-.77.62-1.53,1.25-2.45,1.99-.75-.66-1.62-1.43-2.7-2.4h4.9c.09.14.17.27.26.41Z"/>
        </g>
        <polygon class="cls-3" points="93.22 89.34 87.9 89.34 87.9 78.56 90.52 75.8 93.22 78.56 93.22 89.34"/>
        <polygon class="cls-4" points="56.55 89.24 50.66 89.24 50.66 78.45 53.56 75.69 56.55 78.45 56.55 89.24"/>
      </g>
      <text class="cls-6" transform="translate(0 115.44)"><tspan class="cls-5" x="0" y="0">V</tspan><tspan x="14.81" y="0">isit Arewa</tspan></text>
    </g>
  </g>
</svg>