<?xml version="1.0" encoding="UTF-8"?>
<svg id="Layer_2" data-name="Layer 2" xmlns="http://www.w3.org/2000/svg" viewBox="0 0 598.86 213.66">
  <defs>
    <style>
      .cls-1 {
        fill: #39b54a;
        stroke-width: 0px;
      }
    </style>
  </defs>
  <g id="Layer_1-2" data-name="Layer 1">
    <g>
      <g>
        <path class="cls-1" d="M293.08,82.21l-19.04-52.64h8.69l10.24,29.29c.75,2.26,1.62,5.03,2.6,8.3.98,3.27,2.09,7.14,3.34,11.59h-1.66c1.22-4.54,2.31-8.43,3.27-11.66.95-3.23,1.79-5.97,2.53-8.23l9.96-29.29h8.72l-18.79,52.64h-9.86Z"/>
        <path class="cls-1" d="M332.68,36.68c-1.34,0-2.49-.45-3.44-1.36-.95-.91-1.43-1.98-1.43-3.23s.48-2.39,1.43-3.29,2.1-1.34,3.44-1.34,2.5.45,3.46,1.34c.96.9,1.45,1.99,1.45,3.29s-.48,2.36-1.45,3.25c-.97.9-2.12,1.34-3.46,1.34ZM328.76,82.21v-39.5h7.77v39.5h-7.77Z"/>
        <path class="cls-1" d="M361.16,83.02c-2.85,0-5.39-.41-7.61-1.24-2.23-.82-4.05-2.04-5.48-3.66-1.42-1.61-2.37-3.59-2.84-5.92l7.31-1.52c.54,2.05,1.55,3.57,3.04,4.56s3.37,1.48,5.65,1.48c2.5,0,4.49-.52,5.97-1.57,1.48-1.05,2.22-2.3,2.22-3.76,0-1.27-.45-2.32-1.36-3.14-.91-.82-2.3-1.44-4.19-1.84l-6.64-1.52c-3.67-.82-6.41-2.14-8.2-3.96-1.79-1.81-2.69-4.13-2.69-6.96,0-2.35.66-4.42,1.98-6.18,1.32-1.77,3.12-3.14,5.4-4.12,2.29-.98,4.92-1.47,7.91-1.47s5.29.41,7.31,1.24c2.03.82,3.67,1.98,4.93,3.46s2.16,3.2,2.7,5.16l-6.96,1.52c-.5-1.39-1.36-2.61-2.58-3.66-1.22-1.05-3-1.57-5.33-1.57-2.14,0-3.93.48-5.37,1.45-1.44.97-2.15,2.19-2.15,3.67,0,1.32.48,2.38,1.43,3.2.95.81,2.51,1.47,4.68,1.96l6.36,1.41c3.65.82,6.36,2.12,8.12,3.89,1.77,1.77,2.65,4.03,2.65,6.78,0,2.4-.69,4.53-2.07,6.38-1.38,1.85-3.29,3.3-5.72,4.34-2.44,1.05-5.27,1.57-8.5,1.57Z"/>
        <path class="cls-1" d="M389.88,36.68c-1.34,0-2.49-.45-3.45-1.36-.95-.91-1.43-1.98-1.43-3.23s.48-2.39,1.43-3.29c.96-.9,2.1-1.34,3.45-1.34s2.5.45,3.46,1.34c.97.9,1.45,1.99,1.45,3.29s-.48,2.36-1.45,3.25c-.96.9-2.12,1.34-3.46,1.34ZM385.96,82.21v-39.5h7.77v39.5h-7.77Z"/>
        <path class="cls-1" d="M421.07,42.72v6.32h-21.41v-6.32h21.41ZM405.42,33.32h7.77v38.22c0,1.58.34,2.74,1.01,3.48s1.77,1.11,3.3,1.11c.4,0,.93-.05,1.59-.14.66-.09,1.22-.19,1.7-.28l1.38,6.22c-.83.28-1.71.49-2.65.62s-1.87.19-2.79.19c-3.58,0-6.36-.92-8.34-2.77-1.98-1.85-2.97-4.45-2.97-7.79v-38.86Z"/>
      </g>
      <g>
        <path class="cls-1" d="M208.7,169.85c0-2.57-.06-5.51-.16-8.83-.11-3.32-.27-6.9-.48-10.76-25.69,1.07-51.27,1.93-76.74,2.57-25.48.64-51.16,1.18-77.06,1.6-1.07,7.92-1.88,15.89-2.41,23.92-.54,8.03-1.12,16-1.77,23.92-.43,5.78-1.61,8.67-3.53,8.67-1.28,0-2.68-.8-4.17-2.41-1.5-1.61-2.89-3.53-4.17-5.78-1.28-2.25-2.46-4.5-3.53-6.74-1.07-2.25-1.82-4.01-2.25-5.3-1.5-4.28-2.73-8.67-3.69-13.16s-1.44-9.1-1.44-13.81v-4.5c0-1.5.21-3.1.64-4.82h-11.24c-1.07,0-2.52-.1-4.33-.32-1.82-.21-3.64-.59-5.46-1.12-1.82-.53-3.43-1.17-4.82-1.93-1.39-.75-2.09-1.66-2.09-2.73s.64-2.03,1.93-2.89c1.28-.85,2.89-1.55,4.82-2.09,1.93-.53,4.06-.96,6.42-1.28,2.35-.32,4.5-.48,6.42-.48h11.24c1.71-8.35,4.01-17.71,6.9-28.09,2.89-10.38,6.53-20.82,10.92-31.3,4.38-10.49,9.47-20.65,15.25-30.5,5.78-9.84,12.41-18.62,19.91-26.33,7.49-7.71,15.84-13.86,25.04-18.46,9.2-4.6,19.37-6.9,30.5-6.9s20.28,2.04,28.74,6.1c8.45,4.07,15.78,9.53,21.99,16.37,6.21,6.85,11.45,14.72,15.73,23.6,4.28,8.88,7.81,18.14,10.6,27.77,2.78,9.63,4.82,19.38,6.1,29.22,1.28,9.85,2.03,19.05,2.25,27.61,3.64,1.07,7.01,2.62,10.11,4.66,3.1,2.04,4.66,4.87,4.66,8.51,0,1.5-.54,2.68-1.61,3.53-1.07.86-2.41,1.5-4.01,1.93-1.61.43-3.32.7-5.14.8-1.82.11-3.48.16-4.98.16-.43,4.5-1.07,10.11-1.93,16.86-.86,6.74-1.98,13.27-3.37,19.59-1.39,6.32-3,11.72-4.82,16.21-1.82,4.5-3.8,6.74-5.94,6.74-.86,0-1.28-1.18-1.28-3.53,0-6.21.37-12.25,1.12-18.14.75-5.88,1.12-11.93,1.12-18.14ZM100.82,42.7c-13.92,14.34-24.19,29.7-30.82,46.07-6.64,16.37-11.35,33.34-14.13,50.89,12.41-1.07,24.88-2.41,37.41-4.01s25.04-3.05,37.57-4.33,25.04-2.3,37.57-3.05c12.52-.75,25.09-.8,37.73-.16-1.28-11.56-3.32-23.49-6.1-35.8-2.78-12.31-6.74-23.54-11.88-33.71-5.14-10.16-11.61-18.57-19.42-25.2-7.82-6.63-17.29-9.95-28.42-9.95-7.28,0-14.29,1.77-21.03,5.3s-12.9,8.19-18.46,13.97Z"/>
        <path class="cls-1" d="M260.71,148.34c-.43,1.72-1.34,2.94-2.73,3.69-1.39.75-2.84.96-4.33.64-1.5-.32-2.68-1.07-3.53-2.25-.85-1.17-.85-2.73,0-4.66l1.93-5.46c-1.93-1.93-3-4.17-3.21-6.74-.21-2.57.22-4.98,1.29-7.22,1.07-2.25,2.62-4.17,4.66-5.78,2.03-1.61,4.33-2.41,6.9-2.41,4.49,0,6.95,1.66,7.38,4.98.43,3.32-.22,7.01-1.93,11.08,1.28.64,3.37.75,6.26.32,2.89-.43,5.62-.69,8.19-.8,2.57-.11,4.71.38,6.42,1.45,1.71,1.07,2.14,3.53,1.29,7.38-.86,3.85-1.77,8.46-2.73,13.81-.96,5.35-1.66,10.44-2.09,15.25-.43,4.82-.43,8.94,0,12.36.43,3.43,1.61,5.14,3.53,5.14,1.29,0,2.94-1.87,4.98-5.62,2.03-3.74,4.12-8.08,6.26-13,2.14-4.92,4.06-9.9,5.78-14.93,1.71-5.03,2.78-8.83,3.21-11.4.43-2.14,1.33-3.64,2.73-4.5,1.39-.85,2.83-1.23,4.33-1.12,1.5.11,2.73.75,3.69,1.93.96,1.18,1.33,2.84,1.12,4.98-.21,1.07-.75,3.37-1.61,6.9-.86,3.53-2.04,7.5-3.53,11.88-1.5,4.39-3.32,8.99-5.46,13.81-2.14,4.82-4.71,9.26-7.71,13.32-3,4.07-6.32,7.33-9.95,9.79-3.64,2.46-7.71,3.58-12.2,3.37-5.14-.22-8.88-2.52-11.24-6.9-2.36-4.38-3.85-9.63-4.5-15.73s-.48-12.57.48-19.42c.96-6.85,2.3-12.84,4.01-17.98-1.07.22-2.14.32-3.21.32h-3.21c-.64,1.07-1.07,2.25-1.28,3.53Z"/>
        <path class="cls-1" d="M361.52,144.48c-1.71,2.36-3.85,4.28-6.42,5.78-2.57,1.5-5.35,2.73-8.35,3.69-3,.96-6.05,1.66-9.15,2.09-3.11.43-5.83.75-8.19.96-.64,4.5-1.02,8.88-1.12,13.16-.11,4.28.11,8.14.64,11.56.53,3.43,1.39,6.32,2.57,8.67,1.17,2.36,2.83,3.85,4.98,4.5,2.78.86,5.78.38,8.99-1.45,3.21-1.82,6.31-4.33,9.31-7.54,2.99-3.21,5.88-6.95,8.67-11.24,2.78-4.28,5.24-8.4,7.38-12.36,2.14-3.96,3.96-7.6,5.46-10.92,1.5-3.32,2.46-5.72,2.89-7.22.64-1.93,1.65-3.21,3.05-3.85,1.39-.64,2.73-.85,4.01-.64,1.29.22,2.35.91,3.21,2.09.85,1.18,1.07,2.73.64,4.66-.43,1.28-1.18,3.8-2.25,7.54-1.07,3.75-2.62,7.98-4.65,12.68-2.04,4.71-4.5,9.58-7.38,14.61-2.89,5.03-6.37,9.63-10.44,13.81-4.07,4.17-8.72,7.65-13.97,10.44-5.25,2.78-11.08,4.17-17.5,4.17-7.71,0-13.7-2.68-17.98-8.03-4.29-5.35-7.17-12.09-8.67-20.23-1.49-8.13-1.77-16.86-.8-26.17.96-9.31,2.89-18.03,5.78-26.17,2.89-8.13,6.53-14.88,10.92-20.23,4.38-5.35,9.26-8.03,14.61-8.03s9.68,1.77,13.65,5.3c3.96,3.53,7.01,7.66,9.15,12.36,2.14,4.71,3.37,9.53,3.69,14.45.32,4.93-.59,8.78-2.73,11.56ZM341.62,115.91c-1.5.64-3.11,3.37-4.82,8.19-1.71,4.82-3.32,10.65-4.82,17.5,2.35,0,4.71-.27,7.06-.8,2.35-.53,4.06-1.66,5.14-3.37.85-1.28,1.39-3.16,1.61-5.62.21-2.46.16-4.98-.16-7.54-.32-2.57-.86-4.71-1.61-6.42-.75-1.71-1.55-2.35-2.41-1.93Z"/>
        <path class="cls-1" d="M420.28,130.04c.43-3.64,2.09-6.42,4.98-8.35,2.89-1.93,5.94-3.1,9.15-3.53,3.21-.43,6.05-.27,8.51.48,2.46.75,3.48,2.09,3.05,4.01-1.72,6-2.52,12.42-2.41,19.26.11,6.85.64,13.16,1.61,18.94.96,5.78,2.3,10.6,4.01,14.45,1.71,3.85,3.53,5.78,5.46,5.78s3.64-2.62,5.14-7.87c1.5-5.24,2.73-11.29,3.69-18.14.96-6.85,1.77-13.43,2.41-19.75.64-6.31.96-10.65.96-13,0-2.14.8-3.8,2.41-4.98,1.61-1.17,3.26-1.77,4.98-1.77s3.32.59,4.82,1.77c1.49,1.18,2.14,2.84,1.93,4.98-.21,1.28-.48,4.07-.8,8.35-.32,4.28-.91,9.21-1.77,14.77-.86,5.57-2.04,11.45-3.53,17.66-1.5,6.21-3.43,11.88-5.78,17.02-2.36,5.14-5.25,9.47-8.67,13-3.43,3.53-7.49,5.41-12.2,5.62-4.49.43-8.4-.48-11.72-2.73-3.32-2.25-6.16-5.4-8.51-9.47-3,6-6.42,10.92-10.28,14.77-3.85,3.85-8.24,5.99-13.16,6.42-5.99.21-10.81-2.46-14.45-8.03-3.64-5.56-6.32-12.52-8.03-20.87-1.72-8.35-2.68-17.5-2.89-27.45s.21-19.1,1.29-27.45c.43-3.64,2.14-6.42,5.14-8.35,3-1.93,6.1-3.1,9.31-3.53,3.21-.43,6.05-.21,8.51.64,2.46.86,3.37,2.25,2.73,4.17-1.5,5.78-2.46,12.84-2.89,21.19-.43,8.35-.38,16.37.16,24.08.53,7.71,1.45,14.29,2.73,19.75,1.29,5.46,2.89,8.19,4.82,8.19,1.71,0,3.42-2.14,5.14-6.42,1.71-4.28,3.42-9.42,5.14-15.41-2.36-11.77-2.68-24.51-.96-38.21Z"/>
        <path class="cls-1" d="M534.26,113.02c3,.64,5.62,2.04,7.87,4.17,2.25,2.14,4.12,4.5,5.62,7.06,1.71-1.93,3.85-3,6.42-3.21,2.57-.21,5.03.16,7.38,1.12,2.35.96,4.28,2.46,5.78,4.5,1.49,2.04,2.03,4.44,1.61,7.22-.86,3.85-1.66,8.67-2.41,14.45-.75,5.78-1.23,11.35-1.45,16.7-.22,5.35-.05,9.95.48,13.81.53,3.85,1.66,5.78,3.37,5.78,1.28,0,2.83-1.66,4.65-4.98,1.82-3.32,3.64-7.22,5.46-11.72,1.82-4.5,3.48-8.99,4.98-13.49,1.49-4.5,2.46-7.92,2.89-10.27.64-2.14,1.71-3.58,3.21-4.33,1.5-.75,2.94-.96,4.34-.64,1.39.32,2.57,1.12,3.53,2.41s1.12,2.89.48,4.82c-.43,1.28-1.12,3.69-2.09,7.22-.96,3.53-2.2,7.44-3.69,11.72-1.5,4.28-3.27,8.72-5.3,13.32-2.04,4.61-4.39,8.67-7.06,12.2-2.68,3.53-5.67,6.26-8.99,8.19-3.32,1.93-6.9,2.35-10.76,1.28-6.21-1.71-10.71-5.46-13.48-11.24-1.71,5.14-4.07,9.79-7.06,13.97-3,4.17-6.85,7.22-11.56,9.15-4.49,1.5-8.46,1.82-11.88.96-6.21-1.71-11.13-5.57-14.77-11.56-3.64-5.99-6.1-12.95-7.38-20.87-1.29-7.92-1.39-16.16-.32-24.72,1.07-8.56,3.26-16.26,6.58-23.12,3.31-6.85,7.76-12.25,13.32-16.21,5.56-3.96,12.31-5.19,20.23-3.69ZM542.61,145.45c-.43-3.64-1.23-7.17-2.41-10.6-1.18-3.42-2.95-5.35-5.3-5.78-3.43-.64-6.48.59-9.15,3.69-2.68,3.11-4.87,7.22-6.58,12.36-1.71,5.14-2.95,10.76-3.69,16.86-.75,6.1-.96,11.88-.64,17.34.32,5.46,1.17,10.11,2.57,13.97,1.39,3.85,3.48,6,6.26,6.42,2.78.43,5.4-1.07,7.87-4.5,2.46-3.42,4.6-7.81,6.42-13.16,1.82-5.35,3.21-11.29,4.17-17.82.96-6.53,1.12-12.79.48-18.78Z"/>
      </g>
    </g>
  </g>
</svg>